<svg width="100" height="100" viewBox="0 0 100 100" fill="none" xmlns="http://www.w3.org/2000/svg">
<mask id="mask0_744_4322" style="mask-type:alpha" maskUnits="userSpaceOnUse" x="0" y="0" width="100" height="100">
<circle cx="50" cy="50" r="50" fill="#F2E6FF"/>
</mask>
<g mask="url(#mask0_744_4322)">
<rect x="-1" width="101" height="100" fill="url(#paint0_linear_744_4322)"/>
<circle cx="50" cy="50" r="49.5" stroke="url(#paint1_linear_744_4322)"/>
<rect x="42" y="60" width="16" height="16" rx="8" fill="url(#paint2_linear_744_4322)"/>
<path d="M30 40C30 28.9543 38.9543 20 50 20C61.0457 20 70 28.9543 70 40V60C70 62.2091 68.2091 64 66 64H34C31.7909 64 30 62.2091 30 60V40Z" fill="url(#paint3_linear_744_4322)"/>
<rect x="25" y="61" width="50" height="8" rx="4" fill="url(#paint4_linear_744_4322)"/>
<path d="M44 43L48.6154 48L56 40" stroke="url(#paint5_radial_744_4322)" stroke-width="4" stroke-linecap="round" stroke-linejoin="round"/>
</g>
<defs>
<linearGradient id="paint0_linear_744_4322" x1="62.5" y1="100" x2="35" y2="-3.49999" gradientUnits="userSpaceOnUse">
<stop offset="0.187294" stop-color="#F9B5FF"/>
<stop offset="1" stop-color="white"/>
</linearGradient>
<linearGradient id="paint1_linear_744_4322" x1="-22" y1="23.5" x2="109" y2="79" gradientUnits="userSpaceOnUse">
<stop stop-color="#FF8484"/>
<stop offset="1" stop-color="#FFC4BC"/>
</linearGradient>
<linearGradient id="paint2_linear_744_4322" x1="47.5" y1="80" x2="60.6563" y2="54.3495" gradientUnits="userSpaceOnUse">
<stop stop-color="#FF3087"/>
<stop offset="0.489583" stop-color="#AA34F2" stop-opacity="0.479167"/>
<stop offset="0.661458" stop-color="#E230FF" stop-opacity="0.4"/>
</linearGradient>
<linearGradient id="paint3_linear_744_4322" x1="30" y1="17.5" x2="71.2538" y2="73.0692" gradientUnits="userSpaceOnUse">
<stop stop-color="#FFC0C4"/>
<stop offset="1" stop-color="#FF2574"/>
</linearGradient>
<linearGradient id="paint4_linear_744_4322" x1="65" y1="71.5" x2="64.2932" y2="56.8824" gradientUnits="userSpaceOnUse">
<stop stop-color="#FF3087"/>
<stop offset="0.901534" stop-color="#FFC4DC"/>
</linearGradient>
<radialGradient id="paint5_radial_744_4322" cx="0" cy="0" r="1" gradientUnits="userSpaceOnUse" gradientTransform="translate(48.5 44) rotate(-1.19349) scale(24.0052 36.0078)">
<stop stop-color="white"/>
<stop offset="1" stop-color="white" stop-opacity="0"/>
</radialGradient>
</defs>
</svg>
