<svg width="100" height="100" viewBox="0 0 100 100" fill="none" xmlns="http://www.w3.org/2000/svg">
<mask id="mask0_708_3996" style="mask-type:alpha" maskUnits="userSpaceOnUse" x="0" y="0" width="100" height="100">
<circle cx="50" cy="50" r="50" fill="#F2E6FF"/>
</mask>
<g mask="url(#mask0_708_3996)">
<rect x="-1" width="101" height="100" fill="url(#paint0_linear_708_3996)"/>
<path d="M10.3902 61.669C10.3902 58.7443 11.8114 56.0019 14.201 54.3156L45.9857 31.8858C49.0968 29.6904 53.2529 29.6904 56.364 31.8858L88.1487 54.3156C90.5383 56.0019 91.9595 58.7443 91.9595 61.669V97.1428C91.9595 99.9043 89.7209 102.143 86.9595 102.143H15.3902C12.6288 102.143 10.3902 99.9043 10.3902 97.1428V61.669Z" fill="url(#paint1_linear_708_3996)" stroke="white" stroke-width="2"/>
<rect x="28" y="41" width="47" height="41" rx="1" fill="url(#paint2_linear_708_3996)" stroke="url(#paint3_linear_708_3996)" stroke-width="2"/>
<rect x="40" y="51" width="22" height="3" rx="1.5" fill="url(#paint4_linear_708_3996)"/>
<rect x="50" y="59" width="12" height="3" rx="1.5" fill="url(#paint5_linear_708_3996)"/>
<path d="M10.4084 96.98V67.1189C10.4084 66.3905 11.1624 65.9064 11.8248 66.2097L49.9865 83.683C50.7829 84.0476 51.6988 84.0461 52.4938 83.6787L90.2839 66.2171C90.9465 65.9109 91.7033 66.3949 91.7033 67.1249V96.98C91.7033 99.7414 89.4647 101.98 86.7033 101.98H15.4084C12.647 101.98 10.4084 99.7414 10.4084 96.98Z" fill="url(#paint6_linear_708_3996)" stroke="white" stroke-width="2"/>
<path d="M91.5522 101.98H10.93C7.87998 101.98 6.77588 97.9574 9.39856 96.4004L44.6048 75.4994C48.6957 73.0707 53.7866 73.0707 57.8775 75.4994L93.0837 96.4004C95.7064 97.9574 94.6023 101.98 91.5522 101.98Z" fill="url(#paint7_linear_708_3996)" stroke="white" stroke-width="2"/>
<g filter="url(#filter0_f_708_3996)">
<circle cx="87.5" cy="41.5" r="1.5" fill="white"/>
</g>
<circle cx="87.5" cy="41.5" r="1" fill="white"/>
<g filter="url(#filter1_f_708_3996)">
<circle cx="71" cy="17" r="2" fill="white"/>
</g>
<circle cx="71" cy="17" r="1.5" fill="white"/>
<g filter="url(#filter2_f_708_3996)">
<circle cx="29.5" cy="29.5" r="2.5" fill="white"/>
</g>
<circle cx="29.5" cy="29.5" r="1.5" fill="white"/>
<g filter="url(#filter3_f_708_3996)">
<circle cx="16.5" cy="26.5" r="1.5" fill="white"/>
</g>
<circle cx="16.5" cy="26.5" r="1" fill="white"/>
<circle cx="50" cy="50" r="49.5" stroke="url(#paint8_linear_708_3996)"/>
</g>
<defs>
<filter id="filter0_f_708_3996" x="84" y="38" width="7" height="7" filterUnits="userSpaceOnUse" color-interpolation-filters="sRGB">
<feFlood flood-opacity="0" result="BackgroundImageFix"/>
<feBlend mode="normal" in="SourceGraphic" in2="BackgroundImageFix" result="shape"/>
<feGaussianBlur stdDeviation="1" result="effect1_foregroundBlur_708_3996"/>
</filter>
<filter id="filter1_f_708_3996" x="67" y="13" width="8" height="8" filterUnits="userSpaceOnUse" color-interpolation-filters="sRGB">
<feFlood flood-opacity="0" result="BackgroundImageFix"/>
<feBlend mode="normal" in="SourceGraphic" in2="BackgroundImageFix" result="shape"/>
<feGaussianBlur stdDeviation="1" result="effect1_foregroundBlur_708_3996"/>
</filter>
<filter id="filter2_f_708_3996" x="25" y="25" width="9" height="9" filterUnits="userSpaceOnUse" color-interpolation-filters="sRGB">
<feFlood flood-opacity="0" result="BackgroundImageFix"/>
<feBlend mode="normal" in="SourceGraphic" in2="BackgroundImageFix" result="shape"/>
<feGaussianBlur stdDeviation="1" result="effect1_foregroundBlur_708_3996"/>
</filter>
<filter id="filter3_f_708_3996" x="13" y="23" width="7" height="7" filterUnits="userSpaceOnUse" color-interpolation-filters="sRGB">
<feFlood flood-opacity="0" result="BackgroundImageFix"/>
<feBlend mode="normal" in="SourceGraphic" in2="BackgroundImageFix" result="shape"/>
<feGaussianBlur stdDeviation="1" result="effect1_foregroundBlur_708_3996"/>
</filter>
<linearGradient id="paint0_linear_708_3996" x1="1.50003" y1="84" x2="119.5" y2="-2.99997" gradientUnits="userSpaceOnUse">
<stop stop-color="#FFB5E1"/>
<stop offset="1" stop-color="white"/>
</linearGradient>
<linearGradient id="paint1_linear_708_3996" x1="51.241" y1="87.8408" x2="51.241" y2="21.8585" gradientUnits="userSpaceOnUse">
<stop stop-color="white"/>
<stop offset="0.984447" stop-color="#9D8DFF"/>
</linearGradient>
<linearGradient id="paint2_linear_708_3996" x1="69.5738" y1="112.065" x2="43.0627" y2="47.4013" gradientUnits="userSpaceOnUse">
<stop stop-color="#E3A8FF"/>
<stop offset="1" stop-color="white"/>
</linearGradient>
<linearGradient id="paint3_linear_708_3996" x1="76" y1="83" x2="-12.054" y2="80.9644" gradientUnits="userSpaceOnUse">
<stop offset="0.124772" stop-color="#BBA3FF"/>
<stop offset="0.673429" stop-color="#FFD0FD"/>
<stop offset="1" stop-color="white"/>
</linearGradient>
<linearGradient id="paint4_linear_708_3996" x1="66.1622" y1="52.8" x2="53.151" y2="42.5359" gradientUnits="userSpaceOnUse">
<stop stop-color="#A788FF"/>
<stop offset="1" stop-color="#F5B5FF"/>
</linearGradient>
<linearGradient id="paint5_linear_708_3996" x1="64.2703" y1="60.8" x2="54.5555" y2="56.6198" gradientUnits="userSpaceOnUse">
<stop stop-color="#A788FF"/>
<stop offset="1" stop-color="#F5B5FF"/>
</linearGradient>
<linearGradient id="paint6_linear_708_3996" x1="10.4084" y1="75.4157" x2="121.752" y2="95.0726" gradientUnits="userSpaceOnUse">
<stop stop-color="#9D8DFF"/>
<stop offset="0.421875" stop-color="#E2BDFF"/>
<stop offset="1" stop-color="white"/>
</linearGradient>
<linearGradient id="paint7_linear_708_3996" x1="36.0289" y1="71.5596" x2="74.1279" y2="103.095" gradientUnits="userSpaceOnUse">
<stop stop-color="#A893FB"/>
<stop offset="0.390625" stop-color="#DCBAFF"/>
<stop offset="1" stop-color="white"/>
</linearGradient>
<linearGradient id="paint8_linear_708_3996" x1="-2.90084e-07" y1="50.8197" x2="100" y2="50.8197" gradientUnits="userSpaceOnUse">
<stop stop-color="#A788FF"/>
<stop offset="1" stop-color="#F5B5FF"/>
</linearGradient>
</defs>
</svg>
