<svg width="226" height="97" viewBox="0 0 226 97" fill="none" xmlns="http://www.w3.org/2000/svg">
<rect x="191.364" y="8.66455" width="2" height="9" transform="rotate(45 191.364 8.66455)" fill="#FFEA2F"/>
<path d="M51.1436 1.83472L53.2477 2.10405C54.4098 2.2528 55.2313 3.31544 55.0825 4.47754V4.47754C54.9338 5.63963 55.7553 6.70227 56.9173 6.85102V6.85102C58.0794 6.99977 58.9009 8.06242 58.7522 9.22451L58.4828 11.3287" stroke="#FFEA2F" stroke-width="2" stroke-linecap="round" stroke-linejoin="round"/>
<path d="M7.3916 76.8887L8.02468 74.864C8.37432 73.7458 9.56423 73.1228 10.6824 73.4725V73.4725C11.8006 73.8221 12.9905 73.1991 13.3401 72.0809V72.0809C13.6898 70.9627 14.8797 70.3397 15.9979 70.6893L18.0225 71.3224" stroke="white" stroke-width="2" stroke-linecap="round" stroke-linejoin="round"/>
<path d="M224.012 60.2705L221.985 60.896C220.865 61.2415 219.678 60.614 219.332 59.4945V59.4945C218.987 58.3751 217.799 57.7476 216.68 58.0931V58.0931C215.56 58.4385 214.373 57.8111 214.027 56.6916L213.402 54.6646" stroke="#95FF7A" stroke-width="2" stroke-linecap="round" stroke-linejoin="round"/>
<rect x="191.613" y="48.823" width="2" height="5.46251" transform="rotate(125.324 191.613 48.823)" fill="#587DFF"/>
<circle cx="167.5" cy="11.1646" r="2.5" fill="#FF3087"/>
<circle cx="34.5" cy="56.1646" r="2.5" fill="#FF3087"/>
<circle cx="198" cy="73.6646" r="2" fill="#FFEA2F"/>
<circle cx="2" cy="9.66455" r="2" fill="#587DFF"/>
<path d="M212.527 22.1245L218.916 20.0323L218.002 26.0252L212.527 22.1245Z" fill="white"/>
<path d="M33.9901 31.8628L27.3063 32.5807L29.4463 26.9088L33.9901 31.8628Z" fill="#95FF7A"/>
<path d="M61.7285 47.7949C61.7285 44.7695 63.2486 41.9465 65.7744 40.2811L107.963 12.4643C110.969 10.4826 114.866 10.4826 117.872 12.4643L160.06 40.2811C162.586 41.9465 164.106 44.7695 164.106 47.7949V90.8572C164.106 93.6186 161.868 95.8572 159.106 95.8572H66.7285C63.9671 95.8572 61.7285 93.6186 61.7285 90.8572V47.7949Z" fill="url(#paint0_linear_681_5576)" stroke="url(#paint1_linear_681_5576)" stroke-width="2"/>
<rect x="84" y="20" width="59" height="52" rx="1" fill="url(#paint2_linear_681_5576)" stroke="url(#paint3_linear_681_5576)" stroke-width="2"/>
<g filter="url(#filter0_i_681_5576)">
<path fill-rule="evenodd" clip-rule="evenodd" d="M112.124 50.4118C108.233 49.876 102.892 44.9632 101.164 41.9708C99.0513 38.3116 99.8114 33.1389 103.471 31.0263C106.625 29.2049 110.538 29.8856 112.911 32.4527C115.288 29.9252 119.171 29.2644 122.306 31.0743C125.965 33.187 126.726 38.3596 124.613 42.0189C122.644 45.4283 115.984 51.3307 112.124 50.4118Z" fill="url(#paint4_linear_681_5576)" fill-opacity="0.7"/>
</g>
<path d="M62 90.5V54.5155C62 53.7978 62.7335 53.3138 63.3933 53.5961L111.815 74.3111C112.571 74.6348 113.428 74.6334 114.184 74.3071L162.141 53.6028C162.801 53.3178 163.537 53.8019 163.537 54.5209V90.5C163.537 93.2614 161.298 95.5 158.537 95.5H67C64.2386 95.5 62 93.2614 62 90.5Z" fill="url(#paint5_linear_681_5576)" stroke="url(#paint6_linear_681_5576)" stroke-width="2"/>
<path d="M157.678 95.5H68.322C63.1609 95.5 61.3834 88.6311 65.8967 86.1276L106.694 63.4978C110.617 61.3221 115.383 61.3221 119.306 63.4978L160.103 86.1276C164.617 88.6311 162.839 95.5 157.678 95.5Z" fill="url(#paint7_linear_681_5576)" stroke="url(#paint8_linear_681_5576)" stroke-width="2"/>
<defs>
<filter id="filter0_i_681_5576" x="100" y="30" width="25.7769" height="24.5076" filterUnits="userSpaceOnUse" color-interpolation-filters="sRGB">
<feFlood flood-opacity="0" result="BackgroundImageFix"/>
<feBlend mode="normal" in="SourceGraphic" in2="BackgroundImageFix" result="shape"/>
<feColorMatrix in="SourceAlpha" type="matrix" values="0 0 0 0 0 0 0 0 0 0 0 0 0 0 0 0 0 0 127 0" result="hardAlpha"/>
<feOffset dy="4"/>
<feGaussianBlur stdDeviation="3.5"/>
<feComposite in2="hardAlpha" operator="arithmetic" k2="-1" k3="1"/>
<feColorMatrix type="matrix" values="0 0 0 0 0.9125 0 0 0 0 0.224323 0 0 0 0 0.513357 0 0 0 0.45 0"/>
<feBlend mode="normal" in2="shape" result="effect1_innerShadow_681_5576"/>
</filter>
<linearGradient id="paint0_linear_681_5576" x1="113" y1="79" x2="113" y2="2" gradientUnits="userSpaceOnUse">
<stop stop-color="#FCFCFF"/>
<stop offset="0.984447" stop-color="#FFB5E1"/>
</linearGradient>
<linearGradient id="paint1_linear_681_5576" x1="60.7285" y1="53.1569" x2="165.106" y2="53.1569" gradientUnits="userSpaceOnUse">
<stop stop-color="#A788FF"/>
<stop offset="1" stop-color="#F5B5FF"/>
</linearGradient>
<linearGradient id="paint2_linear_681_5576" x1="136" y1="109.5" x2="102.5" y2="28.5" gradientUnits="userSpaceOnUse">
<stop stop-color="#C598FF"/>
<stop offset="1" stop-color="white"/>
</linearGradient>
<linearGradient id="paint3_linear_681_5576" x1="110" y1="143.5" x2="68.2966" y2="47.0456" gradientUnits="userSpaceOnUse">
<stop stop-color="#A788FF"/>
<stop offset="1" stop-color="#F5B5FF"/>
</linearGradient>
<linearGradient id="paint4_linear_681_5576" x1="112.839" y1="34.5548" x2="113" y2="51" gradientUnits="userSpaceOnUse">
<stop stop-color="#FF4E83"/>
<stop offset="0.640625" stop-color="#FF3986" stop-opacity="0.307148"/>
<stop offset="1" stop-color="#FF3087" stop-opacity="0"/>
</linearGradient>
<linearGradient id="paint5_linear_681_5576" x1="62" y1="64.5" x2="82" y2="79" gradientUnits="userSpaceOnUse">
<stop stop-color="#FDE8FF"/>
<stop offset="1" stop-color="white"/>
</linearGradient>
<linearGradient id="paint6_linear_681_5576" x1="62" y1="74.5984" x2="163.537" y2="74.5984" gradientUnits="userSpaceOnUse">
<stop stop-color="#A788FF"/>
<stop offset="1" stop-color="#F5B5FF"/>
</linearGradient>
<linearGradient id="paint7_linear_681_5576" x1="94" y1="60" x2="125.5" y2="91" gradientUnits="userSpaceOnUse">
<stop stop-color="#FDE8FF"/>
<stop offset="1" stop-color="white"/>
</linearGradient>
<linearGradient id="paint8_linear_681_5576" x1="49" y1="78.041" x2="177" y2="78.041" gradientUnits="userSpaceOnUse">
<stop stop-color="#A788FF"/>
<stop offset="1" stop-color="#F5B5FF"/>
</linearGradient>
</defs>
</svg>
