<svg width="68" height="68" viewBox="0 0 68 68" fill="none" xmlns="http://www.w3.org/2000/svg">
<g opacity="0.6" filter="url(#filter0_f_1787_6988)">
<rect x="16" y="23" width="36" height="22" rx="6" fill="url(#paint0_linear_1787_6988)"/>
</g>
<path opacity="0.8" d="M13 28C13 27.4477 13.4477 27 14 27H54C54.5523 27 55 27.4477 55 28V42C55 45.3137 52.3137 48 49 48H19C15.6863 48 13 45.3137 13 42V28Z" fill="url(#paint1_linear_1787_6988)" fill-opacity="0.1"/>
<path opacity="0.8" d="M13 28C13 27.4477 13.4477 27 14 27H54C54.5523 27 55 27.4477 55 28V42C55 45.3137 52.3137 48 49 48H19C15.6863 48 13 45.3137 13 42V28Z" fill="url(#paint2_linear_1787_6988)" fill-opacity="0.1"/>
<path d="M35.9414 14.8952L53.3486 26.5H14.6514L32.0585 14.8952C33.2342 14.1115 34.7658 14.1115 35.9414 14.8952Z" fill="url(#paint3_linear_1787_6988)" stroke="url(#paint4_linear_1787_6988)"/>
<rect opacity="0.8" x="21.5" y="18.5" width="25" height="25" rx="1.5" fill="url(#paint5_linear_1787_6988)" stroke="url(#paint6_linear_1787_6988)"/>
<rect opacity="0.8" x="28" y="23" width="12" height="1.5" rx="0.75" fill="url(#paint7_linear_1787_6988)"/>
<rect opacity="0.8" x="28" y="27" width="12" height="1.5" rx="0.75" fill="url(#paint8_linear_1787_6988)"/>
<g filter="url(#filter1_b_1787_6988)">
<path d="M33.7481 36.7805L13.6 28L13.6 42C13.6 45.3137 16.2863 48 19.6 48L48.4 48C51.7137 48 54.4 45.3137 54.4 42L54.4 28L33.7481 36.7805Z" fill="url(#paint9_linear_1787_6988)" fill-opacity="0.6"/>
<path d="M33.7481 36.7805L13.6 28L13.6 42C13.6 45.3137 16.2863 48 19.6 48L48.4 48C51.7137 48 54.4 45.3137 54.4 42L54.4 28L33.7481 36.7805Z" stroke="url(#paint10_linear_1787_6988)" stroke-linecap="round"/>
</g>
<path d="M35.9414 33.8952L53.3486 45.5H14.6514L32.0585 33.8952C33.2342 33.1115 34.7658 33.1115 35.9414 33.8952Z" fill="url(#paint11_linear_1787_6988)" stroke="url(#paint12_linear_1787_6988)"/>
<defs>
<filter id="filter0_f_1787_6988" x="12" y="19" width="44" height="30" filterUnits="userSpaceOnUse" color-interpolation-filters="sRGB">
<feFlood flood-opacity="0" result="BackgroundImageFix"/>
<feBlend mode="normal" in="SourceGraphic" in2="BackgroundImageFix" result="shape"/>
<feGaussianBlur stdDeviation="2" result="effect1_foregroundBlur_1787_6988"/>
</filter>
<filter id="filter1_b_1787_6988" x="9.09998" y="23.2367" width="49.8" height="29.2633" filterUnits="userSpaceOnUse" color-interpolation-filters="sRGB">
<feFlood flood-opacity="0" result="BackgroundImageFix"/>
<feGaussianBlur in="BackgroundImage" stdDeviation="2"/>
<feComposite in2="SourceAlpha" operator="in" result="effect1_backgroundBlur_1787_6988"/>
<feBlend mode="normal" in="SourceGraphic" in2="effect1_backgroundBlur_1787_6988" result="shape"/>
</filter>
<linearGradient id="paint0_linear_1787_6988" x1="16" y1="34" x2="52" y2="34" gradientUnits="userSpaceOnUse">
<stop stop-color="#7848FF"/>
<stop offset="1" stop-color="#DA74E3"/>
</linearGradient>
<linearGradient id="paint1_linear_1787_6988" x1="34" y1="27" x2="34" y2="48" gradientUnits="userSpaceOnUse">
<stop stop-color="white"/>
<stop offset="1" stop-color="#FF9CE5"/>
</linearGradient>
<linearGradient id="paint2_linear_1787_6988" x1="34" y1="27" x2="34" y2="48" gradientUnits="userSpaceOnUse">
<stop stop-color="white"/>
<stop offset="1" stop-color="#FF9CE5"/>
</linearGradient>
<linearGradient id="paint3_linear_1787_6988" x1="33.5" y1="10" x2="34" y2="27" gradientUnits="userSpaceOnUse">
<stop stop-color="white"/>
<stop offset="1" stop-color="white" stop-opacity="0"/>
</linearGradient>
<linearGradient id="paint4_linear_1787_6988" x1="34" y1="13" x2="34" y2="28.5" gradientUnits="userSpaceOnUse">
<stop stop-color="white"/>
<stop offset="1" stop-color="#FFA9E7" stop-opacity="0"/>
</linearGradient>
<linearGradient id="paint5_linear_1787_6988" x1="34" y1="19.7931" x2="34" y2="44" gradientUnits="userSpaceOnUse">
<stop stop-color="white"/>
<stop offset="0.911458" stop-color="#D8A6FF"/>
</linearGradient>
<linearGradient id="paint6_linear_1787_6988" x1="21" y1="16" x2="44" y2="42.5" gradientUnits="userSpaceOnUse">
<stop stop-color="#D06DFF"/>
<stop offset="1" stop-color="white"/>
</linearGradient>
<linearGradient id="paint7_linear_1787_6988" x1="31.375" y1="24.5" x2="42.25" y2="24.5" gradientUnits="userSpaceOnUse">
<stop stop-color="#886CF8"/>
<stop offset="1" stop-color="#D9D9D9" stop-opacity="0"/>
</linearGradient>
<linearGradient id="paint8_linear_1787_6988" x1="31.375" y1="28.5" x2="42.25" y2="28.5" gradientUnits="userSpaceOnUse">
<stop stop-color="#BD7DFD"/>
<stop offset="1" stop-color="#D9D9D9" stop-opacity="0"/>
</linearGradient>
<linearGradient id="paint9_linear_1787_6988" x1="19.5" y1="36" x2="50" y2="34.5" gradientUnits="userSpaceOnUse">
<stop stop-color="#EAB1FF"/>
<stop offset="1" stop-color="white" stop-opacity="0"/>
<stop offset="1" stop-color="#DEADF0" stop-opacity="0"/>
</linearGradient>
<linearGradient id="paint10_linear_1787_6988" x1="13" y1="34.5" x2="53.8457" y2="24.7987" gradientUnits="userSpaceOnUse">
<stop offset="0.0107701" stop-color="white" stop-opacity="0.91"/>
<stop offset="0.467376" stop-color="white" stop-opacity="0"/>
<stop offset="1" stop-color="white" stop-opacity="0.78"/>
</linearGradient>
<linearGradient id="paint11_linear_1787_6988" x1="34" y1="24.5" x2="34" y2="45.5" gradientUnits="userSpaceOnUse">
<stop offset="0.415815" stop-color="white"/>
<stop offset="1" stop-color="white" stop-opacity="0"/>
</linearGradient>
<linearGradient id="paint12_linear_1787_6988" x1="34" y1="43" x2="34" y2="33" gradientUnits="userSpaceOnUse">
<stop stop-color="white" stop-opacity="0"/>
<stop offset="1" stop-color="#FFA9E7" stop-opacity="0.79"/>
</linearGradient>
</defs>
</svg>
