<svg width="68" height="68" viewBox="0 0 68 68" fill="none" xmlns="http://www.w3.org/2000/svg">
<g filter="url(#filter0_f_1787_6987)">
<rect x="17" y="24" width="34" height="22" rx="6" fill="url(#paint0_linear_1787_6987)" fill-opacity="0.6"/>
</g>
<g opacity="0.3" filter="url(#filter1_i_1787_6987)">
<path d="M14 25C14 21.6863 16.6863 19 20 19H48C51.3137 19 54 21.6863 54 25V43C54 46.3137 51.3137 49 48 49H20C16.6863 49 14 46.3137 14 43V25Z" fill="url(#paint1_linear_1787_6987)" fill-opacity="0.4"/>
</g>
<rect x="14.5" y="19.5" width="39" height="29" rx="5.5" stroke="url(#paint2_linear_1787_6987)"/>
<path d="M53 26L36.8539 33.7676C35.2326 34.5477 33.3467 34.5589 31.7162 33.7982L15 26" stroke="url(#paint3_linear_1787_6987)" stroke-linecap="round"/>
<defs>
<filter id="filter0_f_1787_6987" x="10" y="17" width="48" height="36" filterUnits="userSpaceOnUse" color-interpolation-filters="sRGB">
<feFlood flood-opacity="0" result="BackgroundImageFix"/>
<feBlend mode="normal" in="SourceGraphic" in2="BackgroundImageFix" result="shape"/>
<feGaussianBlur stdDeviation="3.5" result="effect1_foregroundBlur_1787_6987"/>
</filter>
<filter id="filter1_i_1787_6987" x="14" y="19" width="40" height="30" filterUnits="userSpaceOnUse" color-interpolation-filters="sRGB">
<feFlood flood-opacity="0" result="BackgroundImageFix"/>
<feBlend mode="normal" in="SourceGraphic" in2="BackgroundImageFix" result="shape"/>
<feColorMatrix in="SourceAlpha" type="matrix" values="0 0 0 0 0 0 0 0 0 0 0 0 0 0 0 0 0 0 127 0" result="hardAlpha"/>
<feOffset/>
<feGaussianBlur stdDeviation="7"/>
<feComposite in2="hardAlpha" operator="arithmetic" k2="-1" k3="1"/>
<feColorMatrix type="matrix" values="0 0 0 0 1 0 0 0 0 1 0 0 0 0 1 0 0 0 0.55 0"/>
<feBlend mode="normal" in2="shape" result="effect1_innerShadow_1787_6987"/>
</filter>
<linearGradient id="paint0_linear_1787_6987" x1="10.2" y1="27.6667" x2="47.9694" y2="51.8359" gradientUnits="userSpaceOnUse">
<stop stop-color="#7848FF"/>
<stop offset="1" stop-color="#DA74E3"/>
</linearGradient>
<linearGradient id="paint1_linear_1787_6987" x1="20.5" y1="21.5" x2="30" y2="43.5" gradientUnits="userSpaceOnUse">
<stop stop-color="white"/>
<stop offset="1" stop-color="#FFC1EE"/>
</linearGradient>
<linearGradient id="paint2_linear_1787_6987" x1="12.5" y1="20.5" x2="53" y2="51.5" gradientUnits="userSpaceOnUse">
<stop stop-color="white" stop-opacity="0.83"/>
<stop offset="0.5" stop-color="#F5B5FF"/>
<stop offset="1" stop-color="white" stop-opacity="0.56"/>
</linearGradient>
<linearGradient id="paint3_linear_1787_6987" x1="14.5" y1="26" x2="52.9878" y2="31.982" gradientUnits="userSpaceOnUse">
<stop stop-color="#FDF1FF"/>
<stop offset="0.484375" stop-color="#F8CAFF"/>
<stop offset="1" stop-color="#F7C9FF"/>
</linearGradient>
</defs>
</svg>
