<svg width="24" height="24" viewBox="0 0 24 24" fill="none" xmlns="http://www.w3.org/2000/svg">
<rect x="17" y="8" width="2" height="2" rx="1" fill="white"/>
<mask id="path-2-inside-1_920_5467" fill="white">
<path fill-rule="evenodd" clip-rule="evenodd" d="M16.3499 5.25H18C20.2091 5.25 22 7.04086 22 9.25V17C22 19.2091 20.2091 21 18 21H6C3.79086 21 2 19.2091 2 17V9.25C2 7.04086 3.79086 5.25 6 5.25H7.65007C7.9831 3.95608 9.15768 3 10.5556 3H13.4444C14.8423 3 16.0169 3.95608 16.3499 5.25Z"/>
</mask>
<path d="M16.3499 5.25L15.3815 5.49926L15.5747 6.25H16.3499V5.25ZM7.65007 5.25V6.25H8.42528L8.61851 5.49926L7.65007 5.25ZM16.3499 6.25H18V4.25H16.3499V6.25ZM18 6.25C19.6569 6.25 21 7.59315 21 9.25H23C23 6.48858 20.7614 4.25 18 4.25V6.25ZM21 9.25V17H23V9.25H21ZM21 17C21 18.6569 19.6569 20 18 20V22C20.7614 22 23 19.7614 23 17H21ZM18 20H6V22H18V20ZM6 20C4.34315 20 3 18.6569 3 17H1C1 19.7614 3.23858 22 6 22V20ZM3 17V9.25H1V17H3ZM3 9.25C3 7.59315 4.34315 6.25 6 6.25V4.25C3.23858 4.25 1 6.48858 1 9.25H3ZM6 6.25H7.65007V4.25H6V6.25ZM8.61851 5.49926C8.84058 4.63643 9.62501 4 10.5556 4V2C8.69035 2 7.12562 3.27573 6.68163 5.00074L8.61851 5.49926ZM10.5556 4H13.4444V2H10.5556V4ZM13.4444 4C14.375 4 15.1594 4.63643 15.3815 5.49926L17.3184 5.00074C16.8744 3.27573 15.3097 2 13.4444 2V4Z" fill="white" mask="url(#path-2-inside-1_920_5467)"/>
<circle cx="12" cy="13" r="3.5" stroke="white"/>
</svg>
