<svg width="24" height="24" viewBox="0 0 24 24" fill="none" xmlns="http://www.w3.org/2000/svg">
<rect x="3.75" y="5.25" width="16.5" height="16.5" rx="8.25" stroke="#C1C1C1" stroke-width="1.5"/>
<path d="M12 10.5V13.5L14 16.5" stroke="#C1C1C1" stroke-width="1.5" stroke-linecap="round"/>
<path d="M5.99942 4.57591C6.44623 4.25129 6.55206 3.61003 6.11573 3.27145C5.76778 3.00145 5.37644 2.80535 4.96917 2.70234C4.25918 2.52275 3.55895 2.64081 3.02254 3.03054C2.48613 3.42026 2.15747 4.04973 2.10886 4.78047C2.08098 5.19964 2.14656 5.63243 2.29582 6.04678C2.48299 6.56638 3.12556 6.66389 3.57237 6.33927L4.7859 5.45759L5.99942 4.57591Z" fill="#C1C1C1"/>
<path d="M20.4727 6.27819C20.9195 6.60282 21.5621 6.50531 21.7493 5.98571C21.8985 5.57135 21.9641 5.13856 21.9362 4.7194C21.8876 3.98866 21.559 3.35919 21.0225 2.96946C20.4861 2.57974 19.7859 2.46168 19.0759 2.64126C18.6686 2.74427 18.2773 2.94038 17.9294 3.21038C17.493 3.54895 17.5989 4.19021 18.0457 4.51484L19.2592 5.39651L20.4727 6.27819Z" fill="#C1C1C1"/>
</svg>
