<svg width="87" height="23" viewBox="0 0 87 23" fill="none" xmlns="http://www.w3.org/2000/svg">
<path fill-rule="evenodd" clip-rule="evenodd" d="M24.1989 10.8653C25.4783 11.9524 27.2846 12.5517 29.2867 12.5517C31.2889 12.5517 33.0959 11.9531 34.3745 10.8653C35.6236 9.80394 36.3111 8.34494 36.3111 6.7572V5.79454C36.3111 4.2068 35.6236 2.74851 34.3745 1.68644C33.0959 0.598621 31.2889 0 29.2867 0C27.2846 0 25.4776 0.598621 24.1989 1.68644C22.9499 2.74779 22.2623 4.2068 22.2623 5.79454V6.7572C22.2623 8.34494 22.9499 9.80323 24.1989 10.8653ZM24.1954 6.7572V5.79454C24.1954 3.45012 26.3371 1.74866 29.2874 1.74866C32.2378 1.74866 34.3794 3.45012 34.3794 5.79454V6.7572C34.3794 9.10162 32.2378 10.8038 29.2874 10.8038C26.3371 10.8038 24.1954 9.10233 24.1954 6.7572ZM2.23603 20.7953H7.19207V20.7946C9.56829 20.7946 12.3151 20.7273 14.6751 20.2317L15.0985 20.143V22.2207L14.8174 22.28C12.3954 22.7885 9.60352 22.8572 7.19207 22.8572H0V0.223295H13.6945V2.28593H2.23603V9.80982H13.4394V11.8725H2.23603V20.7953ZM41.5737 22.8786H22.6576V13.7448H41.5737V22.8786ZM31.1487 18.3672L24.59 16.0528H24.5893V21.1307H39.6406V16.0528L33.0818 18.3672C33.0769 18.3693 33.0727 18.3708 33.0677 18.3722C32.7648 18.4694 32.4401 18.5174 32.1153 18.5174C31.7905 18.5174 31.4657 18.4687 31.1628 18.3722C31.1579 18.37 31.1537 18.3686 31.1487 18.3672ZM38.2225 15.4928H26.0081L31.465 17.4181C31.8729 17.5468 32.3576 17.5461 32.7655 17.4181L38.2225 15.4928ZM39.6412 0.267487H41.5736V12.4981H39.6412V0.267487ZM56.2924 8.19633C56.3643 9.63708 56.7304 10.3794 57.6401 10.6964V0.223295H59.8761V22.8579H57.6401V11.1408C56.7299 11.4576 56.3636 12.2007 56.2917 13.6411H56.2213C56.1353 11.9139 55.6253 11.1909 54.2607 11.0006V11.8724H46.0943V20.7953H47.988C50.3642 20.7953 53.111 20.728 55.471 20.2324L55.8944 20.1437V22.2214L55.6133 22.2807C53.1913 22.7892 50.3994 22.8579 47.988 22.8579H43.859V9.80982H52.0254V2.28593H43.859V0.223295H54.2614V10.8368C55.626 10.6466 56.136 9.92353 56.222 8.19633H56.2924ZM61.9797 0.223295H64.2158V22.8572H61.9797V0.223295ZM84.4379 0.223295V10.8225C83.1494 10.6116 82.6633 9.88134 82.5795 8.19633H82.5091C82.4132 10.1231 81.7905 10.8011 80.0413 10.8826V10.9541C81.7898 11.0364 82.4125 11.7137 82.5091 13.6404H82.5795C82.6633 11.9554 83.1494 11.2259 84.4379 11.0142V22.8572H86.674V0.223295H84.4379ZM68.554 20.7953H72.4892L72.4899 20.7946C74.8662 20.7946 77.6129 20.7273 79.973 20.2317L80.3964 20.143V22.2207L80.1153 22.28C77.6933 22.7885 74.9014 22.8572 72.4899 22.8572H66.3187V0.223295H79.2473V2.28593H68.554V9.80982H78.4816V11.8725H68.554V20.7953ZM30.5632 8.27921C30.6598 8.3772 30.7859 8.42583 30.912 8.42583C31.0381 8.42583 31.1642 8.3772 31.2607 8.27921C31.453 8.08396 31.453 7.76642 31.2607 7.57117L29.7799 6.06782V4.19972C29.7799 3.92294 29.5594 3.69908 29.2867 3.69908C29.0141 3.69908 28.7936 3.92294 28.7936 4.19972V6.27523C28.7936 6.40825 28.8457 6.53556 28.938 6.62925L30.5632 8.27921ZM20.2165 8.19633C20.313 10.1238 20.9358 10.8018 22.6843 10.8826V10.8833V10.9549C20.9351 11.0357 20.313 11.713 20.2165 13.6411H20.1461C20.0651 12.0155 19.6093 11.2788 18.418 11.0392V22.8572H16.1819V0.223295H18.418V10.7982C19.6093 10.5586 20.0651 9.82198 20.1461 8.19633H20.2165Z" fill="white"/>
</svg>
