<?xml version="1.0" encoding="utf-8"?>
<!-- Generator: Adobe Illustrator 26.4.1, SVG Export Plug-In . SVG Version: 6.00 Build 0)  -->
<svg version="1.1" id="레이어_1" xmlns="http://www.w3.org/2000/svg" xmlns:xlink="http://www.w3.org/1999/xlink" x="0px"
	 y="0px"  viewBox="0 0 1080 1920" style="enable-background:new 0 0 1080 1920;" xml:space="preserve">
<style type="text/css">
	.st0{fill:#FFFFFF;}
	.st1{fill:#FFFFFF;stroke:#FFFFFF;stroke-width:8.7829;stroke-miterlimit:10;}
	.st2{fill:url(#SVGID_1_);}
	.st3{fill:url(#SVGID_00000120523662877590559530000003989728019699346572_);}
	.st4{fill:url(#SVGID_00000058573991676460922940000016920272694258897848_);}
	.st5{fill:url(#SVGID_00000178168271871055102730000004786814847288204983_);}
</style>
<g>
	<g>
		<g>
			<path class="st0" d="M943.13,779.29l-4.21,22.52c-0.67,3.57-2.68,6.67-5.68,8.72c-2.29,1.57-4.94,2.39-7.66,2.39
				c-0.84,0-1.68-0.08-2.52-0.24c-7.37-1.38-12.25-8.49-10.87-15.86l3.49-18.67h-14.16v129.07h35.97c8.04,0,14.55-6.52,14.55-14.55
				V792.7C952.03,786.67,948.36,781.49,943.13,779.29z"/>
			<path class="st0" d="M942.71,711.59c-2.85-0.53-5.51-1.5-7.93-2.82l-12.95,69.39l-3.69,19.78c-0.76,4.09,1.94,8.04,6.04,8.81
				c1.98,0.37,3.99-0.05,5.65-1.19c1.66-1.14,2.78-2.86,3.15-4.84l4.21-22.55L949.54,712c-0.61,0.04-1.22,0.07-1.84,0.07
				C946.05,712.05,944.38,711.9,942.71,711.59z"/>
		</g>
		<circle class="st0" cx="947.65" cy="685.13" r="20.19"/>
		<path class="st1" d="M859.49,964.99H170.35c-13.57,0-24.57-11-24.57-24.57v-199.1c0-13.57,11-24.57,24.57-24.57H859.5
			c13.57,0,24.57,11,24.57,24.57v199.1C884.06,953.99,873.06,964.99,859.49,964.99z"/>
		<linearGradient id="SVGID_1_" gradientUnits="userSpaceOnUse" x1="615.1551" y1="1071.5626" x2="602.4487" y2="752.0885">
			<stop  offset="0" style="stop-color:#7D4BFF"/>
			<stop  offset="0.2094" style="stop-color:#814EFF"/>
			<stop  offset="0.4149" style="stop-color:#8D56FF"/>
			<stop  offset="0.6188" style="stop-color:#A063FF"/>
			<stop  offset="0.8206" style="stop-color:#BC75FF"/>
			<stop  offset="1" style="stop-color:#DB8AFF"/>
		</linearGradient>
		<path class="st2" d="M676.36,949.66H535.6c-7.17,0-12.97-5.81-12.97-12.97V745.06c0-7.17,5.81-12.97,12.97-12.97h140.76
			c7.17,0,12.97,5.81,12.97,12.97v191.63C689.33,943.86,683.52,949.66,676.36,949.66z"/>
		
			<linearGradient id="SVGID_00000132083773951866276250000006381463820086912189_" gradientUnits="userSpaceOnUse" x1="795.0051" y1="1071.5626" x2="782.2987" y2="752.0885">
			<stop  offset="0" style="stop-color:#7D4BFF"/>
			<stop  offset="0.2094" style="stop-color:#814EFF"/>
			<stop  offset="0.4149" style="stop-color:#8D56FF"/>
			<stop  offset="0.6188" style="stop-color:#A063FF"/>
			<stop  offset="0.8206" style="stop-color:#BC75FF"/>
			<stop  offset="1" style="stop-color:#DB8AFF"/>
		</linearGradient>
		<path style="fill:url(#SVGID_00000132083773951866276250000006381463820086912189_);" d="M856.21,949.66H715.45
			c-7.17,0-12.97-5.81-12.97-12.97V745.06c0-7.17,5.81-12.97,12.97-12.97h140.76c7.17,0,12.97,5.81,12.97,12.97v191.63
			C869.18,943.86,863.37,949.66,856.21,949.66z"/>
		
			<linearGradient id="SVGID_00000026855732036592612280000010835858983536077212_" gradientUnits="userSpaceOnUse" x1="435.305" y1="1071.5627" x2="422.5988" y2="752.0885">
			<stop  offset="0" style="stop-color:#7D4BFF"/>
			<stop  offset="0.2094" style="stop-color:#814EFF"/>
			<stop  offset="0.4149" style="stop-color:#8D56FF"/>
			<stop  offset="0.6188" style="stop-color:#A063FF"/>
			<stop  offset="0.8206" style="stop-color:#BC75FF"/>
			<stop  offset="1" style="stop-color:#DB8AFF"/>
		</linearGradient>
		<path style="fill:url(#SVGID_00000026855732036592612280000010835858983536077212_);" d="M496.51,949.66H355.75
			c-7.17,0-12.97-5.81-12.97-12.97V745.06c0-7.17,5.81-12.97,12.97-12.97h140.76c7.17,0,12.97,5.81,12.97,12.97v191.63
			C509.48,943.86,503.67,949.66,496.51,949.66z"/>
		
			<linearGradient id="SVGID_00000072976053250532559490000017389589588144560533_" gradientUnits="userSpaceOnUse" x1="255.455" y1="1071.5626" x2="242.7487" y2="752.0886">
			<stop  offset="0" style="stop-color:#7D4BFF"/>
			<stop  offset="0.2094" style="stop-color:#814EFF"/>
			<stop  offset="0.4149" style="stop-color:#8D56FF"/>
			<stop  offset="0.6188" style="stop-color:#A063FF"/>
			<stop  offset="0.8206" style="stop-color:#BC75FF"/>
			<stop  offset="1" style="stop-color:#DB8AFF"/>
		</linearGradient>
		<path style="fill:url(#SVGID_00000072976053250532559490000017389589588144560533_);" d="M316.66,949.66H175.9
			c-7.17,0-12.97-5.81-12.97-12.97V745.06c0-7.17,5.81-12.97,12.97-12.97h140.76c7.17,0,12.97,5.81,12.97,12.97v191.63
			C329.63,943.86,323.83,949.66,316.66,949.66z"/>
		<g>
			<path class="st0" d="M629.13,832.73c-5.85-1.94-8.2-6.49-8.66-15.31h-0.45c-0.55,10.58-3.83,15.01-12.59,16.18v-65.01H540.6
				v12.63h52.46v46.09H540.6v79.92h26.53c15.49,0,33.43-0.42,48.99-3.54l1.8-0.36V890.6l-2.72,0.55
				c-15.16,3.04-32.81,3.45-48.07,3.45h-12.16v-54.65h52.46v-5.34c8.76,1.17,12.04,5.6,12.59,16.18h0.45
				c0.46-8.82,2.81-13.37,8.66-15.31v71.77h14.36V768.58h-14.36L629.13,832.73L629.13,832.73z"/>
			<rect x="657" y="768.58" class="st0" width="14.36" height="138.64"/>
		</g>
		<g>
			<path class="st0" d="M836.85,768.58v64.92c-8.28-1.29-11.4-5.77-11.94-16.09h-0.45c-0.62,11.8-4.62,15.95-15.85,16.46v0.44
				c11.23,0.5,15.23,4.65,15.85,16.46h0.45c0.54-10.32,3.66-14.79,11.94-16.09v72.54h14.36V768.58H836.85z"/>
			<path class="st0" d="M760.09,894.58h-25.28v-54.65h63.78V827.3h-63.78v-46.09h68.69v-12.63h-83.06v138.64h39.64
				c15.49,0,33.42-0.42,48.99-3.54l1.8-0.36v-12.73l-2.72,0.55C792.99,894.17,775.35,894.58,760.09,894.58z"/>
		</g>
		<g>
			<path class="st0" d="M366.64,907.97h121.52v-55.95H366.64V907.97z M379.05,866.16l42.14,14.17c0.03,0.01,0.06,0.02,0.09,0.03
				c1.94,0.59,4.03,0.89,6.12,0.89s4.17-0.3,6.12-0.89c0.03-0.01,0.06-0.02,0.09-0.03l42.14-14.17v31.1h-96.69v-31.1H379.05z
				 M388.16,862.73h78.47l-35.06,11.79c-2.62,0.79-5.73,0.79-8.35,0L388.16,862.73z"/>
			<path class="st0" d="M376.54,834.38c8.22,6.66,19.82,10.33,32.69,10.33s24.47-3.67,32.69-10.33c8.02-6.5,12.44-15.44,12.44-25.16
				v-5.9c0-9.72-4.42-18.66-12.44-25.16c-8.22-6.66-19.82-10.33-32.69-10.33c-12.86,0-24.47,3.67-32.69,10.33
				c-8.02,6.5-12.44,15.44-12.44,25.16v5.9C364.1,818.94,368.52,827.88,376.54,834.38z M376.51,809.22v-5.9
				c0-14.36,13.76-24.78,32.71-24.78c18.95,0,32.71,10.42,32.71,24.78v5.9c0,14.36-13.76,24.78-32.71,24.78
				C390.27,834,376.51,823.58,376.51,809.22z"/>
			<rect x="475.74" y="769.47" class="st0" width="12.42" height="74.91"/>
			<path class="st0" d="M417.43,818.54c0.62,0.6,1.43,0.9,2.24,0.9s1.62-0.3,2.24-0.9c1.24-1.2,1.24-3.14,0-4.34l-9.51-9.21v-11.44
				c0-1.69-1.42-3.07-3.17-3.07s-3.17,1.37-3.17,3.07v12.71c0,0.81,0.33,1.59,0.93,2.17L417.43,818.54z"/>
		</g>
		<g>
			<path class="st0" d="M223.87,894.58h-31.84v-54.65H264V827.3h-71.97v-46.09h73.61v-12.63h-87.97v138.64h46.2
				c15.49,0,33.42-0.42,48.99-3.54l1.8-0.36v-12.73l-2.72,0.55C256.78,894.17,239.13,894.58,223.87,894.58z"/>
			<path class="st0" d="M323.4,833.87c-11.23-0.49-15.23-4.65-15.85-16.46h-0.45c-0.52,9.96-3.45,14.47-11.1,15.94v-64.77h-14.36
				v138.64H296v-72.39c7.65,1.47,10.58,5.98,11.1,15.94h0.45c0.62-11.81,4.62-15.96,15.85-16.46L323.4,833.87L323.4,833.87z"/>
		</g>
	</g>
</g>
</svg>
