<svg width="16" height="16" viewBox="0 0 16 16" fill="none" xmlns="http://www.w3.org/2000/svg">
<circle cx="8" cy="8" r="7.5" stroke="#C1C1C1"/>
<path d="M8.22652 9.70718V9.65746C8.24309 8.63812 8.50829 8.19061 9.23757 7.74309C9.96685 7.29558 10.3978 6.65746 10.3978 5.73757C10.3978 4.44475 9.44475 3.5 7.9779 3.5C6.63536 3.5 5.55801 4.32873 5.5 5.74586H6.56906C6.63536 4.78453 7.30663 4.38674 7.9779 4.38674C8.74862 4.38674 9.37017 4.89227 9.37017 5.69613C9.37017 6.35083 8.99724 6.81492 8.50829 7.11326C7.70442 7.60221 7.22376 8.08287 7.20718 9.65746V9.70718H8.22652ZM7.75414 12.1685C8.16851 12.1685 8.50829 11.8287 8.50829 11.4144C8.50829 11 8.16851 10.6602 7.75414 10.6602C7.33978 10.6602 6.99171 11 7 11.4144C6.99171 11.8287 7.33978 12.1685 7.75414 12.1685Z" fill="#C1C1C1"/>
</svg>
