<svg width="16" height="16" viewBox="0 0 16 16" fill="none" xmlns="http://www.w3.org/2000/svg">
<circle cx="8" cy="8" r="8" fill="#C1C1C1"/>
<path fill-rule="evenodd" clip-rule="evenodd" d="M10.4929 11.9072C10.8834 12.2977 11.5166 12.2977 11.9071 11.9072C12.2976 11.5166 12.2976 10.8835 11.9071 10.4929L9.4142 8.00005L11.9071 5.50716C12.2976 5.11663 12.2976 4.48347 11.9071 4.09294C11.5166 3.70242 10.8834 3.70242 10.4929 4.09294L7.99999 6.58584L5.50709 4.09294C5.11657 3.70242 4.48341 3.70242 4.09288 4.09294C3.70236 4.48347 3.70236 5.11663 4.09288 5.50716L6.58577 8.00005L4.09288 10.4929C3.70236 10.8835 3.70236 11.5166 4.09288 11.9072C4.48341 12.2977 5.11657 12.2977 5.50709 11.9072L7.99999 9.41426L10.4929 11.9072Z" fill="#444249"/>
</svg>
