<svg width="12" height="12" viewBox="0 0 12 12" fill="none" xmlns="http://www.w3.org/2000/svg">
<path fill-rule="evenodd" clip-rule="evenodd" d="M1.99998 11.3334C1.63179 11.7016 1.03483 11.7016 0.666645 11.3334C0.298455 10.9652 0.298456 10.3683 0.666646 10.0001L4.66667 6.00008L0.666687 2.0001C0.298497 1.63191 0.298496 1.03496 0.666686 0.666767C1.03488 0.298577 1.63183 0.298578 2.00002 0.666768L6 4.66675L9.99998 0.666768C10.3682 0.298578 10.9651 0.298577 11.3333 0.666767C11.7015 1.03496 11.7015 1.63191 11.3333 2.0001L7.33333 6.00008L11.3334 10.0001C11.7015 10.3683 11.7015 10.9652 11.3334 11.3334C10.9652 11.7016 10.3682 11.7016 10 11.3334L6 7.33341L1.99998 11.3334Z" fill="white"/>
</svg>
