<svg width="24" height="24" viewBox="0 0 24 24" fill="none" xmlns="http://www.w3.org/2000/svg">
<path d="M6.75 8C6.75 7.86193 6.86193 7.75 7 7.75H17C17.1381 7.75 17.25 7.86193 17.25 8V20C17.25 20.1381 17.1381 20.25 17 20.25H7C6.86193 20.25 6.75 20.1381 6.75 20V8Z" stroke="#828187" stroke-width="1.5"/>
<rect x="6" y="4.5" width="12" height="1.5" rx="0.75" fill="#828187"/>
<rect x="12.75" y="3" width="3" height="1.5" rx="0.75" transform="rotate(90 12.75 3)" fill="#828187"/>
<rect x="12.75" y="12.5" width="3" height="1.5" rx="0.75" transform="rotate(90 12.75 12.5)" fill="#828187"/>
<rect x="10.5" y="12.5" width="3" height="1.5" rx="0.75" transform="rotate(90 10.5 12.5)" fill="#828187"/>
<rect x="15" y="12.5" width="3" height="1.5" rx="0.75" transform="rotate(90 15 12.5)" fill="#828187"/>
</svg>
