<svg width="320" height="64" viewBox="0 0 320 64" fill="none" xmlns="http://www.w3.org/2000/svg">
<rect width="320" height="64" rx="16" fill="#FAE54E"/>
<path d="M105.011 30.547V25.1547H102.763V39.4586H105.011V32.3867H106.945V30.547H105.011ZM94.4535 26.4972V28.2873H98.8844C98.8402 28.9006 98.7573 29.4751 98.6247 30.0221L93.6855 30.3039L93.9341 32.221L97.9507 31.8508C97.1607 33.3204 95.796 34.558 93.5142 35.7017L94.7352 37.3867C100.161 34.6575 101.122 31.011 101.128 26.4972H94.4535ZM118.84 30.547V25.1547H116.591V39.4586H118.84V32.3867H120.773V30.547H118.84ZM108.282 26.4972V28.2873H112.713C112.668 28.9006 112.585 29.4751 112.453 30.0221L107.514 30.3039L107.762 32.221L111.779 31.8508C110.989 33.3204 109.624 34.558 107.342 35.7017L108.563 37.3867C113.989 34.6575 114.95 31.011 114.956 26.4972H108.282ZM128.938 33.7735C131.469 33.453 133.275 31.989 133.281 29.8122C133.275 27.4254 130.927 25.8343 127.833 25.8343C124.74 25.8343 122.403 27.4254 122.408 29.8122C122.403 31.9834 124.193 33.4475 126.712 33.7735V36.0442H121.303V37.8729H134.403V36.0442H128.938V33.7735ZM124.635 29.8122C124.629 28.442 125.927 27.6243 127.833 27.6188C129.745 27.6243 131.043 28.442 131.049 29.8122C131.043 31.2762 129.745 32.0552 127.833 32.0552C125.927 32.0552 124.629 31.2762 124.635 29.8122ZM142.767 34.1326H147.098V32.3149H138.844V30.9337H146.772V26.0497H136.579V27.8398H144.546V29.1878H136.595V34.1326H140.54V36.1271H135.131V37.9558H148.231V36.1271H142.767V34.1326ZM157.305 38.1547C159.941 38.1547 161.703 36.5028 161.703 34.1768C161.703 32.0166 160.178 30.4807 158.129 30.4807C157.068 30.4807 156.178 30.9282 155.792 31.5414H155.709L155.979 28.8453H161.035V26.6851H153.792L153.239 33.3039H155.631C155.93 32.7127 156.477 32.3867 157.283 32.3923C158.366 32.3923 159.134 33.1436 159.129 34.2541C159.134 35.3481 158.377 36.0994 157.305 36.0994C156.394 36.0994 155.648 35.5414 155.609 34.7017H153.018C153.051 36.7182 154.836 38.1547 157.305 38.1547ZM163.906 33.9337C166.525 33.6243 168.31 32.5912 169.271 31.1989C170.243 32.5912 172.044 33.6243 174.669 33.9337L175.481 32.1768C172.1 31.8066 170.663 30.2265 170.459 28.8177H174.741V27.0221H170.398V25.3039H168.166V27.0221H163.84V28.8177H168.1C167.895 30.2265 166.459 31.8066 163.089 32.1768L163.906 33.9337ZM170.398 33.4365H168.166V36.0939H162.741V37.9227H175.84V36.0939H170.398V33.4365ZM187.989 25.1713H185.729V35.6077H187.989V31.0663H189.845V29.221H187.989V25.1713ZM176.933 26.3149V33.2873H183.895V26.3149H176.933ZM179.16 31.5249V28.0994H181.663V31.5249H179.16ZM178.585 34.5635V39.2707H188.453V37.4696H180.834V34.5635H178.585ZM200.706 39.4972H202.855V25.1547H200.706V39.4972ZM196.773 30.3702C196.535 27.7127 195.347 26.1215 193.629 26.1271C191.728 26.1215 190.491 28.116 190.496 31.3702C190.491 34.6519 191.728 36.6575 193.629 36.6575C195.391 36.6575 196.601 34.9669 196.789 32.1547H197.723V38.8564H199.839V25.3481H197.723V30.3702H196.773ZM193.629 34.4972C192.938 34.4972 192.552 33.5414 192.563 31.3702C192.552 29.2265 192.938 28.2486 193.629 28.2541C194.347 28.2486 194.75 29.2265 194.75 31.3702C194.75 33.5414 194.347 34.4972 193.629 34.4972ZM217.571 39.5359H219.847V25.1547H217.571V39.5359ZM213.532 26.221H211.245V28.2044C211.234 31.0166 210.201 33.7624 207.577 34.8453L208.925 36.7182C210.665 35.9392 211.787 34.4641 212.422 32.6243C213.057 34.2928 214.14 35.6243 215.753 36.3425L217.074 34.5359C214.527 33.4917 213.521 30.8508 213.532 28.2044V26.221ZM233.051 28.5414V25.1547H230.791V33.8122H233.051V30.3978H234.907V28.5414H233.051ZM225.935 30.6575C226.565 31.8729 227.626 32.8453 229.189 33.3425L230.327 31.6077C228.046 30.884 227.14 29.2818 227.062 27.7348H229.797V25.9448H221.957V27.7348H224.764C224.664 29.3867 223.698 31.105 221.36 31.8398L222.548 33.5746C224.195 33.0497 225.3 31.989 225.935 30.6575ZM230.791 36.1602V39.4972H233.051V34.3757H223.316V36.1602H230.791ZM246.824 30.6796V25.1547H244.603V39.4972H246.824V32.5249H248.857V30.6796H246.824ZM238.481 25.3978V27.2486H235.382V29.0387H243.769V27.2486H240.725V25.3978H238.481ZM239.603 29.7127C237.459 29.7127 235.879 31.1547 235.885 33.1713C235.879 35.1989 237.459 36.6243 239.603 36.6298C241.702 36.6243 243.299 35.1989 243.31 33.1713C243.299 31.1547 241.702 29.7127 239.603 29.7127ZM239.603 34.8011C238.691 34.8011 238.034 34.2265 238.039 33.1713C238.034 32.1436 238.691 31.5414 239.603 31.5304C240.498 31.5414 241.144 32.1436 241.155 33.1713C241.144 34.2265 240.498 34.8011 239.603 34.8011ZM259.105 39.4972H261.381V25.1547H259.105V39.4972ZM250.089 26.6464V28.3978H254.779C254.453 31.4917 252.928 33.6077 249.287 35.3315L250.453 37.116C255.674 34.663 257.072 31.0608 257.072 26.6464H250.089Z" fill="black"/>
<path fill-rule="evenodd" clip-rule="evenodd" d="M69 39.3687C75.6274 39.3687 81 35.4806 81 30.6843C81 25.8881 75.6274 22 69 22C62.3726 22 57 25.8881 57 30.6843C57 33.8149 59.2889 36.5585 62.7216 38.0866L62.1064 41.6483C62.0636 41.8962 62.3266 42.0835 62.5469 41.9621L67.3907 39.2912C67.9171 39.3423 68.4543 39.3687 69 39.3687Z" fill="black"/>
</svg>
