<svg width="11" height="18" viewBox="0 0 11 18" fill="none" xmlns="http://www.w3.org/2000/svg">
<path d="M10.5303 1.53033C10.8232 1.23744 10.8232 0.762563 10.5303 0.46967C10.2374 0.176777 9.76256 0.176777 9.46967 0.46967L10.5303 1.53033ZM2 9L1.46967 8.46967L0.93934 9L1.46967 9.53033L2 9ZM9.46967 17.5303C9.76256 17.8232 10.2374 17.8232 10.5303 17.5303C10.8232 17.2374 10.8232 16.7626 10.5303 16.4697L9.46967 17.5303ZM9.46967 0.46967L1.46967 8.46967L2.53033 9.53033L10.5303 1.53033L9.46967 0.46967ZM1.46967 9.53033L9.46967 17.5303L10.5303 16.4697L2.53033 8.46967L1.46967 9.53033Z" fill="white"/>
</svg>
